<?xml version="1.0" standalone="no"?>
<!DOCTYPE svg PUBLIC "-//W3C//DTD SVG 20010904//EN"
 "http://www.w3.org/TR/2001/REC-SVG-20010904/DTD/svg10.dtd">
<svg version="1.0" xmlns="http://www.w3.org/2000/svg"
 width="401.000000pt" height="401.000000pt" viewBox="0 0 401.000000 401.000000"
 preserveAspectRatio="xMidYMid meet">
<metadata>
Created by potrace 1.11, written by Peter Selinger 2001-2013
</metadata>
<g transform="translate(0.000000,401.000000) scale(0.100000,-0.100000)"
fill="#000000" stroke="none">
<path d="M2353 2947 c-88 -56 -140 -100 -188 -159 l-30 -37 -100 -6 c-55 -3
-116 -8 -135 -10 -19 -2 -66 -6 -105 -10 -77 -7 -85 -8 -265 -30 -139 -18
-446 -66 -635 -100 -96 -17 -76 -14 -410 -71 -148 -25 -274 -49 -280 -54 -6
-5 -35 -18 -66 -29 -64 -24 -90 -47 -84 -76 2 -11 4 -25 4 -30 4 -45 180 -126
232 -107 13 5 48 8 77 5 29 -2 93 4 143 12 53 9 143 15 217 15 127 -1 227 6
245 17 6 3 7 1 3 -5 -3 -6 -1 -14 5 -18 7 -4 16 2 22 12 10 18 11 17 18 -6 4
-14 7 -51 8 -82 1 -69 19 -85 100 -95 49 -6 105 -32 71 -33 -25 -1 -66 -43
-79 -79 -34 -102 13 -195 109 -216 31 -7 33 -9 15 -17 -32 -15 -58 -56 -51
-82 9 -36 74 -93 120 -105 44 -12 96 -12 96 1 0 4 11 3 24 -1 13 -5 56 -12 97
-16 41 -4 76 -9 78 -11 3 -2 22 13 43 33 27 26 41 34 46 26 9 -15 68 -40 113
-49 59 -10 111 -5 209 21 137 36 140 35 140 -22 2 -193 16 -296 51 -364 23
-45 92 -106 130 -114 16 -4 29 -13 29 -20 0 -11 20 -13 90 -11 49 1 95 -1 101
-5 6 -4 27 2 45 13 24 14 58 21 126 24 51 2 101 7 112 10 10 3 22 1 26 -6 5
-8 13 -9 21 -4 8 5 28 10 44 11 17 1 56 5 87 9 44 5 63 3 82 -9 15 -10 27 -12
33 -6 6 6 20 6 39 -2 16 -7 39 -11 52 -10 15 2 22 -3 22 -14 0 -19 44 -17 95
4 18 8 31 9 33 2 2 -6 42 -8 104 -5 107 6 162 19 139 33 -11 7 -9 10 7 15 71
23 162 191 196 361 18 86 21 104 30 170 10 69 15 117 23 200 10 105 9 758 -1
950 -7 130 -5 153 8 170 13 16 15 17 10 3 -3 -10 -2 -18 3 -18 13 0 56 60 48
68 -11 11 -528 4 -521 -7 3 -4 1 -13 -5 -21 -7 -13 -9 -12 -9 3 0 15 -12 17
-112 18 -62 0 -140 3 -173 6 -55 5 -283 5 -465 0 -41 -1 -109 2 -150 5 l-75 8
-82 -53z"/>
</g>
</svg>
