<?xml version="1.0" encoding="utf-8"?>
<!-- Generator: Adobe Illustrator 15.0.0, SVG Export Plug-In . SVG Version: 6.00 Build 0)  -->
<!DOCTYPE svg PUBLIC "-//W3C//DTD SVG 1.1//EN" "http://www.w3.org/Graphics/SVG/1.1/DTD/svg11.dtd">
<svg version="1.1" id="Layer_1" xmlns="http://www.w3.org/2000/svg" xmlns:xlink="http://www.w3.org/1999/xlink" x="0px" y="0px"
	 width="100px" height="100px" viewBox="0 0 100 100" enable-background="new 0 0 100 100" xml:space="preserve">
<g>
	<path fill-rule="evenodd" clip-rule="evenodd" d="M11.63,40.459c-0.203,0.462-1.088,0.609-1.34,0.294
		C10.669,40.149,10.792,40.619,11.63,40.459z"/>
	<path fill-rule="evenodd" clip-rule="evenodd" fill="#FFFFFF" d="M68.473,51.484c0.028,0.686-0.289,0.943-0.954,0.771
		C67.447,51.518,67.964,51.506,68.473,51.484z"/>
	<path fill-rule="evenodd" clip-rule="evenodd" fill="#FFFFFF" d="M67.812,57.738c-0.116,0.182-0.229,0.365-0.478,0.387
		c0.025,0.277,0.406,0.262,0.432,0.045c0.623,0.33-0.133,0.939-0.715,0.578C67.073,58.127,67.148,57.568,67.812,57.738z"/>
	<path fill-rule="evenodd" clip-rule="evenodd" fill="#FFFFFF" d="M40.523,55.943c-0.005,1.531-1.566,1.91-1.205,3.145
		C36.694,58.953,38.867,53.791,40.523,55.943z"/>
	<path fill-rule="evenodd" clip-rule="evenodd" d="M44.7,57.693c0.947,0.447-0.189,1.002-0.568,1.25
		C43.438,58.379,45.048,58.635,44.7,57.693z"/>
	<path fill-rule="evenodd" clip-rule="evenodd" fill="#FFFFFF" d="M94.023,28.453c-0.266-0.003-0.518,0.011-0.477,0.386
		c0.887-0.343,0.567-0.867,1.453-1.373c-4.033-0.786-9.144,0.333-12.191-0.198c0.138,0.92-0.304,1.167,0.033,1.748
		c3.304-0.142,6.834-0.004,10.251-0.007C93.318,28.538,93.272,27.688,94.023,28.453z M79.937,27.618
		c-0.091,0.402,0.193,0.501,0.125,0.885c1.181,0.44,0.964-0.105,2.18,0.012c0.03-0.287,0.061-0.575,0.091-0.862
		C81.373,27.719,81.021,27.449,79.937,27.618z M68.512,40.802c-0.161-5.129-1.688-9.154-4.615-12.045
		c4.892,0.154,7.861-0.542,12.215-0.017c0.653-0.387,0.051-0.814,0.761-1.01c0.605,1.773,2.101-0.315,2.781,0.512
		c-0.358-0.127,0.074-0.273,0.068-0.647c-3.781-0.056-6.977-0.539-10.421-0.447c-0.342,0.51,0.949,0.63,0.125,0.885
		c-0.605,0.03-0.117-0.825-0.557-0.931c-2.962,0.681-5.404,0.431-8.717-0.05c-2.568,1.621-5.369,2.954-6.939,5.809
		C38.062,33.49,23.452,36.857,8.94,39.084c-1.135,0.953-3.091,0.893-3.94,2.2c0.112,3.077,3.148,2.74,4.834,3.782
		c0.858-0.757,2.245-0.44,3.519-0.282c2.85-0.653,7.049-1.182,9.218-0.552c1.146-0.452,2.863-0.199,3.996-0.668
		c-0.041,0.274-0.308,0.27-0.284,0.624c0.673,0.263,0.371-0.68,0.931-0.556c0.408,0.919,0.419,2.159,0.282,3.519
		c1.072,1.386,3.916,0.678,4.392,1.773c-0.912-0.071-1.173,0.663-1.839,0.896c-1.696,3.693,0.235,6.091,3.289,6.017
		c-0.988,0.324-1.714,0.971-2.169,1.953c0.771,1.875,2.759,3.211,5.164,2.727c-0.26-0.053-0.503-0.119-0.386-0.479
		c1.779,0.939,2.901,0.564,5.13,0.98c0.731-0.643,1.362-1.406,2.169-1.953c-1.479,1.324,3.587,1.898,3.506,1.898
		c2.709,0.031,4.505-1.318,6.892-1.234c0.164,3.254-0.281,7.793,1.731,10.432c0.659,0.865,2.606,2.275,3.099,1.637
		c-0.057,0.375-0.023,0.676,0.124,0.885c1.702-0.512,3.786,0.48,3.542-0.498c0.486,0.574,0.672,0.166,1.01,0.762
		c1.588-1.971,3.95-0.549,6.698-1.473c0.284,0.033,0.157,0.398,0.386,0.477c0.433-0.689,0.994-0.664,1.316-0.078
		c1.197-0.762,3.65-0.902,4.359,0.025c0.131-0.244,0.281-0.465,0.499-0.602c0.204,0.846,1.163-0.062,1.203,0.998
		c0.082-0.467,0.593-0.404,1.124-0.316c-0.069,1.189,0.896,0.359,1.68,0.613c0.124-0.361-0.262-0.586,0.068-0.646
		c0.268,0.807,0.601-0.107,1.316-0.078c-0.022,0.215-0.045,0.43-0.068,0.646c1,0.018,1.261-0.803,2.18,0.012
		c0.747-0.625,3.501-0.055,3.372-0.951c-8.554-1.268-15.882-0.383-22.782-1.102c0.398-0.584,0.821-1.549,0.16-1.508
		c1.594-0.307,1.814-3.186,1.965-4.154c-0.025,0.164,0.199,0.275,0.409,0.262C68.865,57.473,69.356,49.808,68.512,40.802
		c-0.043,0.17-0.782,0.579-0.67,0.147C67.904,40.703,68.207,40.751,68.512,40.802z"/>
	<path fill-rule="evenodd" clip-rule="evenodd" d="M93.093,29.008c-3.417,0.003-6.947-0.135-10.251,0.007
		c-0.337-0.581,0.104-0.828-0.033-1.748c3.048,0.532,8.158-0.587,12.191,0.198c-0.886,0.506-0.566,1.03-1.453,1.373
		c-0.041-0.375,0.211-0.389,0.477-0.386C93.272,27.688,93.318,28.538,93.093,29.008z"/>
	<path fill-rule="evenodd" clip-rule="evenodd" d="M67.842,40.95c-0.112,0.432,0.627,0.022,0.67-0.147
		c0.845,9.006,0.354,16.67-1.476,24.27c-0.21,0.014-0.435-0.098-0.409-0.262c-0.15,0.969-0.371,3.848-1.965,4.154
		c0.661-0.041,0.238,0.924-0.16,1.508c6.9,0.719,14.229-0.166,22.782,1.102c0.129,0.896-2.625,0.326-3.372,0.951
		c-0.919-0.814-1.18,0.006-2.18-0.012c0.023-0.217,0.046-0.432,0.068-0.646c-0.716-0.029-1.049,0.885-1.316,0.078
		c-0.33,0.061,0.056,0.285-0.068,0.646c-0.784-0.254-1.749,0.576-1.68-0.613c-0.531-0.088-1.042-0.15-1.124,0.316
		c-0.04-1.061-0.999-0.152-1.203-0.998c-0.218,0.137-0.368,0.357-0.499,0.602c-0.709-0.928-3.162-0.787-4.359-0.025
		c-0.322-0.586-0.884-0.611-1.316,0.078c-0.229-0.078-0.102-0.443-0.386-0.477c-2.748,0.924-5.11-0.498-6.698,1.473
		c-0.338-0.596-0.523-0.188-1.01-0.762c0.244,0.979-1.84-0.014-3.542,0.498c-0.147-0.209-0.181-0.51-0.124-0.885
		c-0.492,0.639-2.439-0.771-3.099-1.637c-2.013-2.639-1.567-7.178-1.731-10.432c-2.387-0.084-4.183,1.266-6.892,1.234
		c0.081,0-4.985-0.574-3.506-1.898c-0.808,0.547-1.438,1.311-2.169,1.953c-2.229-0.416-3.351-0.041-5.13-0.98
		c-0.118,0.359,0.125,0.426,0.386,0.479c-2.405,0.484-4.392-0.852-5.164-2.727c0.455-0.982,1.181-1.629,2.169-1.953
		c-3.054,0.074-4.985-2.324-3.289-6.017c0.666-0.232,0.927-0.967,1.839-0.896c-0.477-1.096-3.32-0.388-4.392-1.773
		c0.137-1.359,0.126-2.6-0.282-3.519c-0.561-0.124-0.258,0.818-0.931,0.556c-0.024-0.354,0.243-0.35,0.284-0.624
		c-1.133,0.469-2.85,0.216-3.996,0.668c-2.169-0.63-6.368-0.102-9.218,0.552c-1.274-0.158-2.661-0.475-3.519,0.282
		C8.148,44.025,5.112,44.362,5,41.285c0.849-1.308,2.805-1.247,3.94-2.2c14.512-2.228,29.122-5.595,44.273-6.223
		c1.57-2.855,4.371-4.188,6.939-5.809c3.312,0.48,5.755,0.731,8.717,0.05c0.439,0.105-0.049,0.96,0.557,0.931
		c0.824-0.255-0.467-0.375-0.125-0.885c3.444-0.091,6.64,0.391,10.421,0.447c0.006,0.374-0.427,0.52-0.068,0.647
		c-0.681-0.827-2.176,1.261-2.781-0.512c-0.71,0.195-0.107,0.623-0.761,1.01c-4.354-0.525-7.323,0.171-12.215,0.017
		c2.928,2.892,4.454,6.917,4.615,12.045C68.207,40.751,67.904,40.703,67.842,40.95z M63.225,33.047
		c-1.033,0.185-1.979-0.535-2.27,0.85c-0.084-0.392,0.395-1.239-0.08-1.316c-1.432,0.278-2.988,1.09-4.427,0.622
		c-1.891,1.872-3.957,0.099-5.597,1.371c-1.828-0.773-4.875-0.386-5.937,0.463c-3.622-0.747-8.256,0.744-12.759,1.05
		c-0.391,0.167-0.51,0.67-0.954,0.771c-3.125-0.824-5.515,0.898-9.047,1.006c-2.015,1.321-4.994,0.455-6.982,2.097
		c0.003-0.266-0.011-0.518-0.386-0.477c-0.125,0.361,0.262,0.586-0.068,0.646c-0.796-1.062-1.899-0.039-2.827-0.081
		c0.244,0.132,0.465,0.282,0.602,0.5c-1.721-1.156-3.83,0.564-5.744,0.701c-0.046,0.432-0.091,0.863-0.137,1.294
		c1.955,0.648,4.668,1.082,6.515,0.253c0.628,0.461,1.797,0.825,2.18,0.013c-0.556-0.631-0.419-0.795-0.487-1.578
		c0.954-0.139,0.987,0.269,1.487,0.375c-0.419,0.32,0.115,0.743-0.16,1.51c2.265-0.198,4.57-0.111,6.845-0.803
		c3.401,1.452,9.808-2.205,13.439,0.767c-1.755,0.918-4.914,0.102-6.652,1.041c-0.163,0.854,0.258,1.237-0.012,2.18
		c2.327,0.843,4.086,0.925,6.595,1.569c1.487-2.47,3.765-3.961,5.644-5.945c0.554-0.096,0.909-0.119,1.271,0.353
		c-1.947,3.471-5.24,3.994-4.987,7.978c0.053,0.833,0.776,1.962,0.498,3.542c1.029,0.613,2.315,1.02,3.075,1.852
		c-0.478,2.041-0.328,2.322-1.704,3.744c2.034-0.045,1.583-4.051,3.044-4.039c-0.576,0.006-0.509-0.51-0.556-0.932
		c0.266-0.078,0.513-0.178,0.692-0.363c-1.092-2.68,3.356-3.878,5.337-5.105c2.867-1.775,3.544-4.49,5.089-6.877
		c1.967,1.364-1.248,4.104-1.08,4.029c0.076-0.229,0.41-0.48,0.453-0.17c-0.379,0.416-0.838,1.686-1.169,0.749
		c-0.015,0.144-0.03,0.287-0.046,0.431c-0.173,0.03-0.27,0.154-0.261,0.409c3.448-0.533,5.415-2.896,7.71-4.855
		c2.135,2.912-5.697,6.683-8.301,6.319c0.387-0.009,1.057,0.331,0.908-0.34c-2.822,0.39-4.503,3.292-6.903,3.414
		c0.058,1.016-1.189,4.398-1.501,5.947c0.714-0.453,0.387-0.924,0.999-1.203c0.161,1.5-0.905,1.482-1.522,2.02
		c0.261,0.053,0.504,0.119,0.386,0.477c9.241,0.373,14.891-3.697,23.545-4.053c0.028-2.051-0.195-5.164,0.32-7.163
		c-0.881-0.367-0.225-0.952-0.487-1.578c0.017,0.565,2.053,0.556,1.532-0.056c-0.615,0.243-1.408,0.011-1.656-0.829
		c0.377-3.717-1.364-7.507-1.448-11.057c-0.587-0.082-0.472,0.313-0.862-0.091c-0.398-2.571-2.627-3.66-4.721-4.86
		c-1.088,1.013-2.717,1.354-3.361,2.916c1.902-0.214,2.594-0.417,4.813-0.146c0.349-0.46-0.47-0.87,0.091-0.863
		C62.049,31.875,63.254,31.627,63.225,33.047z M67.519,52.256c0.665,0.172,0.982-0.086,0.954-0.771
		C67.964,51.506,67.447,51.518,67.519,52.256z M33.61,57.395c0.239,1.188,1.44,1.596,2.621,2.021
		c0.481-1.086,0.165-2.816,0.433-4.098c0.051-0.242,0.479-0.191,0.477-0.387c-0.013-1.35-1.313-2.693,0.126-3.258
		c-1.83,0.986-0.228-3.691-1.952-2.168c0.261,0.053,0.504,0.119,0.386,0.478c-2.287-0.131-4.457,0.578-4.031,3.062
		c0.708,1.072,3.243,0.666,4.2,1.535c-0.59,0.475,0.561,0.547,0.294,1.34C34.952,56.447,34.525,55.986,33.61,57.395z M62.152,70.006
		c2.519-2.836,3.484-7.502,4.398-10.656c0.412-0.004,0.449,0.293,0.84,0.307c0.301-0.834-1.196-0.215-0.987-0.977
		c0.717-0.295-0.081-1.537,0.397-1.701c-4.178,0.271-8.288,1.324-11.363,2.287C54.837,63.125,55.11,70.459,62.152,70.006z
		 M67.051,58.748c0.582,0.361,1.338-0.248,0.715-0.578c-0.025,0.217-0.406,0.232-0.432-0.045c0.248-0.021,0.361-0.205,0.478-0.387
		C67.148,57.568,67.073,58.127,67.051,58.748z M39.319,59.088c-0.362-1.234,1.2-1.613,1.205-3.145
		C38.867,53.791,36.694,58.953,39.319,59.088z"/>
	<path fill-rule="evenodd" clip-rule="evenodd" fill="#FFFFFF" d="M36.165,55.92c0.266-0.793-0.885-0.865-0.294-1.34
		c-0.957-0.869-3.491-0.463-4.2-1.535c-0.426-2.484,1.744-3.193,4.031-3.062c0.118-0.358-0.125-0.425-0.386-0.478
		c1.724-1.522,0.122,3.155,1.952,2.168c-1.44,0.564-0.14,1.908-0.126,3.258c0.002,0.195-0.426,0.145-0.477,0.387
		c-0.269,1.281,0.048,3.012-0.433,4.098c-1.181-0.426-2.382-0.834-2.621-2.021C34.525,55.986,34.952,56.447,36.165,55.92z"/>
	<path fill-rule="evenodd" clip-rule="evenodd" d="M82.332,27.653c-0.03,0.288-0.061,0.575-0.091,0.862
		c-1.216-0.117-0.999,0.428-2.18-0.012c0.068-0.384-0.216-0.483-0.125-0.885C81.021,27.449,81.373,27.719,82.332,27.653z"/>
</g>
</svg>
